<svg width="838" height="306" viewBox="0 0 838 306" fill="none" xmlns="http://www.w3.org/2000/svg">
  <defs>
    <linearGradient id="bg-grad" x1="0%" y1="0%" x2="100%" y2="100%">
      <stop offset="0%" stop-color="#0a0a0a"/>
      <stop offset="100%" stop-color="#171717"/>
    </linearGradient>
    <linearGradient id="accent" x1="0%" y1="0%" x2="100%" y2="100%">
      <stop offset="0%" stop-color="#f59e0b" stop-opacity="0.6"/>
      <stop offset="50%" stop-color="#f59e0b" stop-opacity="0.2"/>
      <stop offset="100%" stop-color="#f59e0b" stop-opacity="0.6"/>
    </linearGradient>
    <linearGradient id="node-grad" x1="0%" y1="0%" x2="100%" y2="100%">
      <stop offset="0%" stop-color="#6cc24a"/>
      <stop offset="100%" stop-color="#3c873a"/>
    </linearGradient>
  </defs>

  <rect width="838" height="306" rx="12" fill="url(#bg-grad)"/>
  <rect x="0.5" y="0.5" width="837" height="305" rx="11.5" stroke="url(#accent)" stroke-opacity="0.3"/>

  <g transform="translate(50, 100)">
    <polygon points="40,2.7 72,18.7 72,58.7 40,77.3 8,58.7 8,18.7" fill="#0a0a0a" stroke="url(#accent)" stroke-width="1.5"/>
    <text x="40" y="52" font-family="system-ui, -apple-system, sans-serif" font-size="40" font-weight="700" fill="#f59e0b" text-anchor="middle">S</text>
  </g>

  <g transform="translate(140, 115)">
    <path d="M30 0L60 17.5v35L30 70 0 52.5v-35L30 0z" fill="url(#node-grad)" opacity="0.9"/>
    <text x="30" y="42" font-family="system-ui, -apple-system, sans-serif" font-size="20" font-weight="bold" fill="white" text-anchor="middle">JS</text>
  </g>

  <text x="50" y="230" fill="white" font-family="system-ui, -apple-system, sans-serif" font-size="28" font-weight="600">OTP Verification</text>
  <text x="50" y="265" fill="#a1a1aa" font-family="system-ui, -apple-system, sans-serif" font-size="20">Node.js + Express Example</text>

  <rect x="360" y="24" width="454" height="258" rx="8" fill="#18181b" stroke="#27272a" stroke-width="1"/>
  <rect x="360" y="24" width="454" height="36" rx="8" fill="#27272a"/>
  <rect x="360" y="52" width="454" height="8" fill="#27272a"/>
  <circle cx="380" cy="42" r="5" fill="#f87171"/>
  <circle cx="398" cy="42" r="5" fill="#fbbf24"/>
  <circle cx="416" cy="42" r="5" fill="#4ade80"/>
  <text x="450" y="47" fill="#a1a1aa" font-family="ui-monospace, monospace" font-size="11">server.js</text>

  <text x="380" y="85" fill="#71717a" font-family="ui-monospace, monospace" font-size="12">// Send OTP to phone</text>

  <text x="380" y="110" fill="#c084fc" font-family="ui-monospace, monospace" font-size="12">const</text>
  <text x="420" y="110" fill="#e4e4e7" font-family="ui-monospace, monospace" font-size="12">{ verification } =</text>
  <text x="565" y="110" fill="#c084fc" font-family="ui-monospace, monospace" font-size="12">await</text>

  <text x="395" y="135" fill="#e4e4e7" font-family="ui-monospace, monospace" font-size="12">sendly.verify.</text>
  <text x="505" y="135" fill="#22d3ee" font-family="ui-monospace, monospace" font-size="12">send</text>
  <text x="540" y="135" fill="#e4e4e7" font-family="ui-monospace, monospace" font-size="12">({</text>

  <text x="410" y="160" fill="#f59e0b" font-family="ui-monospace, monospace" font-size="12">to</text>
  <text x="425" y="160" fill="#e4e4e7" font-family="ui-monospace, monospace" font-size="12">:</text>
  <text x="440" y="160" fill="#fbbf24" font-family="ui-monospace, monospace" font-size="12">'+15551234567'</text>
  <text x="565" y="160" fill="#e4e4e7" font-family="ui-monospace, monospace" font-size="12">,</text>

  <text x="410" y="185" fill="#f59e0b" font-family="ui-monospace, monospace" font-size="12">channel</text>
  <text x="475" y="185" fill="#e4e4e7" font-family="ui-monospace, monospace" font-size="12">:</text>
  <text x="490" y="185" fill="#fbbf24" font-family="ui-monospace, monospace" font-size="12">'sms'</text>

  <text x="395" y="210" fill="#e4e4e7" font-family="ui-monospace, monospace" font-size="12">})</text>

  <text x="380" y="245" fill="#71717a" font-family="ui-monospace, monospace" font-size="12">// verification.id: "ver_abc123..."</text>

  <text x="380" y="270" fill="#4ade80" font-family="ui-monospace, monospace" font-size="11">OTP sent to user's phone</text>
</svg>
